<svg width="608" height="607" viewBox="0 0 608 607" fill="none" xmlns="http://www.w3.org/2000/svg">
<path d="M304.178 163.636C267.048 163.636 231.438 178.386 205.184 204.642C178.929 230.898 164.178 266.506 164.178 303.636C164.178 340.767 178.928 376.376 205.184 402.631C231.44 428.886 267.048 443.636 304.178 443.636C341.309 443.636 376.918 428.887 403.173 402.631C429.428 376.375 444.178 340.767 444.178 303.636C444.137 266.522 429.372 230.934 403.126 204.688C376.881 178.443 341.293 163.678 304.178 163.636ZM304.178 396.97C279.424 396.97 255.684 387.136 238.184 369.631C220.678 352.131 210.845 328.391 210.845 303.636C210.845 278.882 220.678 255.142 238.184 237.642C255.684 220.136 279.424 210.303 304.178 210.303C328.933 210.303 352.673 220.136 370.173 237.642C387.678 255.142 397.512 278.882 397.512 303.636C397.512 328.391 387.678 352.131 370.173 369.631C352.673 387.136 328.933 396.97 304.178 396.97ZM304.178 0.303223C310.366 0.303223 316.304 2.76162 320.678 7.13655C325.053 11.5115 327.512 17.4491 327.512 23.6366V93.6366C327.512 101.975 323.064 109.678 315.845 113.844C308.626 118.011 299.73 118.011 292.512 113.844C285.293 109.678 280.845 101.975 280.845 93.6366V23.6366C280.845 17.4491 283.304 11.5115 287.678 7.13655C292.053 2.76162 297.991 0.303223 304.178 0.303223ZM122.698 89.1579L172.214 138.674L172.209 138.669C176.709 143.018 179.277 148.992 179.334 155.253C179.386 161.513 176.923 167.529 172.501 171.955C168.074 176.377 162.058 178.841 155.798 178.789C149.538 178.731 143.564 176.164 139.214 171.664L89.7033 122.153C83.9793 116.226 81.8023 107.716 83.9845 99.7731C86.1616 91.8251 92.37 85.617 100.318 83.4396C108.261 81.2574 116.771 83.4344 122.698 89.1584V89.1579ZM94.1822 326.971H24.1821C15.8436 326.971 8.14079 322.523 3.97412 315.304C-0.192545 308.086 -0.192545 299.19 3.97412 291.971C8.14079 284.752 15.8439 280.304 24.1821 280.304H94.1822C102.521 280.304 110.224 284.752 114.39 291.971C118.557 299.19 118.557 308.086 114.39 315.304C110.224 322.523 102.521 326.971 94.1822 326.971ZM172.188 435.632C176.563 440.007 179.016 445.945 179.016 452.132C179.016 458.32 176.563 464.252 172.188 468.627L122.698 518.116C116.771 523.84 108.261 526.018 100.318 523.835C92.3703 521.658 86.1621 515.45 83.9848 507.502C81.8025 499.559 83.9796 491.049 89.7036 485.122L139.22 435.606L139.215 435.611C143.595 431.247 149.527 428.799 155.704 428.804C161.886 428.809 167.813 431.262 172.188 435.632ZM327.521 513.638V583.638C327.521 591.976 323.073 599.679 315.854 603.846C308.636 608.013 299.74 608.013 292.521 603.846C285.302 599.679 280.854 591.976 280.854 583.638V513.638C280.854 505.299 285.302 497.596 292.521 493.43C299.74 489.263 308.636 489.263 315.854 493.43C323.073 497.596 327.521 505.3 327.521 513.638ZM518.668 485.122C523.173 489.471 525.736 495.445 525.793 501.706C525.845 507.966 523.381 513.982 518.959 518.408C514.532 522.83 508.517 525.294 502.257 525.242C495.996 525.185 490.022 522.622 485.673 518.117L436.184 468.601V468.606C430.46 462.679 428.288 454.169 430.465 446.226C432.647 438.278 438.85 432.07 446.798 429.893C454.746 427.71 463.251 429.887 469.178 435.611L518.668 485.122ZM607.522 303.642C607.522 309.829 605.064 315.767 600.689 320.142C596.314 324.517 590.377 326.975 584.189 326.975H514.189C505.851 326.975 498.148 322.527 493.981 315.308C489.814 308.09 489.814 299.194 493.981 291.975C498.148 284.756 505.851 280.308 514.189 280.308H584.189C590.377 280.308 596.314 282.767 600.689 287.142C605.064 291.517 607.522 297.454 607.522 303.642ZM518.668 89.1619C523.043 93.5368 525.501 99.4692 525.501 105.656C525.501 111.844 523.043 117.776 518.668 122.156L469.178 171.672V171.667C463.251 177.391 454.746 179.568 446.798 177.386C438.851 175.209 432.648 169.001 430.465 161.053C428.288 153.11 430.46 144.599 436.184 138.673L485.673 89.1568V89.162C490.054 84.7871 495.986 82.3287 502.173 82.3287C508.361 82.3287 514.293 84.7871 518.668 89.162V89.1619Z" fill="#F5F6FA"/>
</svg>
