<svg width="614" height="613" viewBox="0 0 614 613" fill="none" xmlns="http://www.w3.org/2000/svg">
<path d="M197.725 0.309503C195.407 0.424087 193.126 0.898049 190.954 1.71057C70.1726 46.4706 0.793945 163.817 0.793945 297.351C0.793945 471.151 141.994 612.591 315.794 612.591C449.314 612.591 566.9 542.971 611.66 422.191H611.666C613.655 416.738 613.452 410.727 611.098 405.42C608.744 400.118 604.421 395.93 599.041 393.748C593.666 391.566 587.65 391.561 582.265 393.722C551.697 406.014 518.087 412.389 482.629 412.389C336.309 412.389 200.989 276.842 200.989 130.522C200.989 95.0633 207.129 61.454 219.421 30.886H219.426C222.186 23.8548 221.212 15.902 216.837 9.7407C212.462 3.57933 205.28 0.037596 197.728 0.318796L197.725 0.309503ZM162.959 65.4082C158.61 86.4962 156.194 108.242 156.194 130.507C156.194 303.814 309.314 457.174 482.62 457.174C504.891 457.174 526.631 454.523 547.719 450.174C500.932 525.204 415.984 567.772 315.786 567.772C166.199 567.772 45.5858 446.928 45.5858 297.346C45.5858 197.138 87.9085 112.199 162.95 65.4122L162.959 65.4082Z" fill="#F5F6FA"/>
</svg>
